<?xml version="1.0" encoding="iso-8859-1"?>
<!-- Generator: Adobe Illustrator 19.0.0, SVG Export Plug-In . SVG Version: 6.00 Build 0)  -->
<svg version="1.1" id="Layer_1" xmlns="http://www.w3.org/2000/svg" xmlns:xlink="http://www.w3.org/1999/xlink" x="0px" y="0px"
	 viewBox="0 0 512 512" style="enable-background:new 0 0 512 512;" xml:space="preserve">
<path style="fill:#735643;" d="M350.954,19.395C324.305,38.8,291.491,50.251,256,50.251c-35.492,0-68.309-11.452-94.959-30.861
	v251.193h189.913V19.395z"/>
<path style="fill:#4D3A2D;" d="M256,247.827C191.853,181.928,171.476,70.458,157.112,0l-37.96,13.35
	c0,61.805-5.932,114.779-44.064,182.698L62.674,487.169L231.169,512l40.001-60.002L256,247.827z"/>
<path style="fill:#261D16;" d="M436.91,196.047c-38.13-67.92-44.064-120.892-44.064-182.698L354.888,0
	C340.524,70.458,320.147,181.928,256,247.827v226.925L280.831,512l168.495-24.831L436.91,196.047z"/>
<g>
	<circle style="fill:#4D3A2D;" cx="290.702" cy="418.304" r="8.533"/>
	<circle style="fill:#4D3A2D;" cx="290.702" cy="361.29" r="8.533"/>
	<circle style="fill:#4D3A2D;" cx="290.702" cy="304.276" r="8.533"/>
</g>
<polygon style="fill:#261D16;" points="100.961,389.798 100.961,407.215 167.993,407.215 167.818,389.798 "/>
<rect x="344.178" y="389.803" style="fill:#4D3A2D;" width="66.857" height="17.417"/>
<g>
</g>
<g>
</g>
<g>
</g>
<g>
</g>
<g>
</g>
<g>
</g>
<g>
</g>
<g>
</g>
<g>
</g>
<g>
</g>
<g>
</g>
<g>
</g>
<g>
</g>
<g>
</g>
<g>
</g>
</svg>
