<?xml version="1.0" encoding="iso-8859-1"?>
<!-- Generator: Adobe Illustrator 19.0.0, SVG Export Plug-In . SVG Version: 6.00 Build 0)  -->
<svg version="1.1" id="Layer_1" xmlns="http://www.w3.org/2000/svg" xmlns:xlink="http://www.w3.org/1999/xlink" x="0px" y="0px"
	 viewBox="0 0 512 512" style="enable-background:new 0 0 512 512;" xml:space="preserve">
<g>
	<polygon style="fill:#FFD646;" points="390.493,228.376 110.672,228.376 130.95,78.226 250.583,108.642 370.216,78.226 	"/>
	<polygon style="fill:#FFD646;" points="390.493,229.813 110.672,229.813 130.95,79.663 250.583,110.078 370.216,79.663 	"/>
</g>
<circle style="fill:#CCA51C;" cx="153.032" cy="148.237" r="10.557"/>
<polygon style="fill:#EEC021;" points="504.396,257.45 7.604,257.45 17.743,219.675 494.258,219.675 "/>
<g>
	<circle style="fill:#CCA51C;" cx="347.471" cy="148.237" r="10.557"/>
	<polygon style="fill:#CCA51C;" points="384.598,184.721 116.568,184.721 116.568,184.721 110.672,229.813 390.493,229.813 	"/>
</g>
<g>
	<polygon style="fill:#EEC021;" points="504.396,257.45 7.604,257.45 17.743,219.675 494.258,219.675 	"/>
	<polygon style="fill:#EEC021;" points="504.396,257.45 7.604,257.45 17.743,219.675 494.258,219.675 	"/>
</g>
<polygon style="fill:#CCA51C;" points="12.673,240.403 7.604,259.29 504.396,259.29 499.327,240.403 "/>
<path d="M153.037,166.393c10.014,0,18.162-8.147,18.162-18.162c0-10.015-8.147-18.161-18.162-18.161
	c-10.015,0-18.162,8.147-18.162,18.161C134.874,158.245,143.023,166.393,153.037,166.393z M153.037,145.278
	c1.628,0,2.954,1.325,2.954,2.953s-1.325,2.954-2.954,2.954s-2.954-1.325-2.954-2.954
	C150.082,146.602,151.408,145.278,153.037,145.278z"/>
<path d="M511.741,255.479l-10.139-37.775c-0.892-3.322-3.903-5.633-7.344-5.633h-97.183L377.741,78.573
	c-0.309-2.133-1.509-4.035-3.301-5.234c-1.793-1.198-4.009-1.58-6.098-1.046l-117.759,29.939L132.823,72.293
	c-2.089-0.531-4.305-0.15-6.098,1.046c-1.793,1.197-2.992,3.099-3.301,5.234l-19.334,133.498H17.743
	c-3.441,0-6.452,2.31-7.344,5.633L0.26,255.479c-0.612,2.284-0.129,4.723,1.31,6.599s3.669,2.977,6.033,2.977h122.746v54.656
	c0,66.296,53.936,120.232,120.232,120.232s120.232-53.936,120.232-120.232v-54.656h133.583c2.364,0,4.595-1.1,6.033-2.977
	C511.868,260.202,512.353,257.763,511.741,255.479z M250.583,424.735c-57.911,0-105.024-47.114-105.024-105.024v-54.656h210.048
	v54.656C355.607,377.621,308.493,424.735,250.583,424.735z M110.672,227.279h279.821h97.932l6.057,22.568H17.518l6.057-22.568
	H110.672z M248.71,117.448c1.23,0.313,2.517,0.313,3.747,0l111.445-28.333l12.745,88.003H124.52l12.745-88.003L248.71,117.448z
	 M122.317,192.325h256.532l2.86,19.746H119.457L122.317,192.325z"/>
<path d="M347.473,166.393c10.014,0,18.162-8.147,18.162-18.162c0-10.015-8.147-18.161-18.162-18.161
	c-10.015,0-18.161,8.147-18.161,18.161C329.312,158.245,337.459,166.393,347.473,166.393z M347.473,145.278
	c1.628,0,2.954,1.325,2.954,2.953s-1.325,2.954-2.954,2.954c-1.629,0-2.953-1.325-2.953-2.954
	C344.519,146.602,345.845,145.278,347.473,145.278z"/>
<g>
</g>
<g>
</g>
<g>
</g>
<g>
</g>
<g>
</g>
<g>
</g>
<g>
</g>
<g>
</g>
<g>
</g>
<g>
</g>
<g>
</g>
<g>
</g>
<g>
</g>
<g>
</g>
<g>
</g>
</svg>
