<?xml version="1.0" encoding="iso-8859-1"?>
<!-- Generator: Adobe Illustrator 19.0.0, SVG Export Plug-In . SVG Version: 6.00 Build 0)  -->
<svg version="1.1" id="Layer_1" xmlns="http://www.w3.org/2000/svg" xmlns:xlink="http://www.w3.org/1999/xlink" x="0px" y="0px"
	 viewBox="0 0 512.035 512.035" style="enable-background:new 0 0 512.035 512.035;" xml:space="preserve">
<g>
	<g>
		<g>
			<path d="M23.733,271.148l-6.665-1.092v80.768c0,53.094,37.837,98.901,89.967,108.937l72.098,13.875v-7.049
				c1.357-46.626-22.067-98.543-62.652-139.136C89.26,300.238,57.201,280.773,23.733,271.148z"/>
			<path d="M492.417,324.744c-4.378-6.75-9.361-12.945-14.822-18.586l-19.089,2.347c-57.037,7.45-100.104,56.499-100.104,114.091
				c0,27.392,9.847,53.973,27.733,74.846l11.913,14.396c52.053-3.371,98.108-40.431,110.609-92.868
				C516.438,386.346,510.678,352.878,492.417,324.744z"/>
			<path d="M170.667,136.731H102.4c-14.114,0-25.6,11.486-25.6,25.6s11.486,25.6,25.6,25.6h68.267c14.114,0,25.6-11.486,25.6-25.6
				S184.781,136.731,170.667,136.731z M153.6,170.865h-34.133c-4.719,0-8.533-3.823-8.533-8.533c0-4.71,3.814-8.533,8.533-8.533
				H153.6c4.719,0,8.533,3.823,8.533,8.533C162.133,167.042,158.319,170.865,153.6,170.865z"/>
			<rect x="238.933" y="375.66" width="34.133" height="17.067"/>
			<path d="M341.333,422.594c0-66.133,49.451-122.462,115.021-131.021l3.533-0.435c-13.79-9.6-29.551-16.333-46.643-19.576
				L256,232.463V94.06c0-4.71-3.823-8.533-8.533-8.533H25.6c-4.71,0-8.533,3.823-8.533,8.533v158.711l9.907,1.613
				c0.324,0.051,0.648,0.128,0.964,0.213c36.42,10.368,71.211,31.394,100.608,60.791c43.853,43.844,69.146,100.463,67.652,151.45
				v10.078l175.94,33.852c1.067,0.171,2.125,0.239,3.183,0.367l-2.236-2.705C352.64,484.58,341.333,454.056,341.333,422.594z
				 M170.667,204.994H102.4c-23.526,0-42.667-19.14-42.667-42.667c0-23.518,19.14-42.667,42.667-42.667h68.267
				c23.526,0,42.667,19.149,42.667,42.667C213.333,185.854,194.193,204.994,170.667,204.994z M298.667,392.727h-8.533v8.533
				c0,4.71-3.814,8.533-8.533,8.533v8.533c0,4.71-3.814,8.533-8.533,8.533s-8.533-3.823-8.533-8.533v-8.533H230.4
				c-4.719,0-8.533-3.823-8.533-8.533v-17.067h-8.533c-4.719,0-8.533-3.823-8.533-8.533c0-4.71,3.814-8.533,8.533-8.533h8.533
				c0-4.71,3.814-8.533,8.533-8.533h8.533v-8.533c0-4.71,3.814-8.533,8.533-8.533S256,345.35,256,350.06v8.533h25.6
				c4.719,0,8.533,3.823,8.533,8.533v8.533h8.533c4.719,0,8.533,3.823,8.533,8.533C307.2,388.904,303.386,392.727,298.667,392.727z"
				/>
			<path d="M247.467,68.465c14.114,0,25.6-11.486,25.6-25.6V25.798c0-14.114-11.486-25.6-25.6-25.6H230.4v25.6
				c0,4.71-3.814,8.533-8.533,8.533s-8.533-3.823-8.533-8.533v-25.6h-17.067v25.6c0,4.71-3.814,8.533-8.533,8.533
				s-8.533-3.823-8.533-8.533v-25.6h-17.067v25.6c0,4.71-3.814,8.533-8.533,8.533c-4.719,0-8.533-3.823-8.533-8.533v-25.6H128v25.6
				c0,4.71-3.814,8.533-8.533,8.533s-8.533-3.823-8.533-8.533v-25.6H93.867v25.6c0,4.71-3.814,8.533-8.533,8.533
				S76.8,30.508,76.8,25.798v-25.6H59.733v25.6c0,4.71-3.814,8.533-8.533,8.533s-8.533-3.823-8.533-8.533v-25.6H25.6
				C11.486,0.198,0,11.684,0,25.798v17.067c0,14.114,11.486,25.6,25.6,25.6H247.467z"/>
		</g>
	</g>
</g>
<g>
</g>
<g>
</g>
<g>
</g>
<g>
</g>
<g>
</g>
<g>
</g>
<g>
</g>
<g>
</g>
<g>
</g>
<g>
</g>
<g>
</g>
<g>
</g>
<g>
</g>
<g>
</g>
<g>
</g>
</svg>
